<svg width="64" height="64" viewBox="0 0 26 26" fill="none" xmlns="http://www.w3.org/2000/svg">
<rect x="5.21436" y="1.5" width="19.2857" height="19.2857" stroke="black" stroke-width="3"/>
<path d="M6.70909 20.7852H21.5V24.4999H1.5V5.21423H5.20909V19.2852V20.7852H6.70909Z" stroke="black" stroke-width="3"/>
<path d="M14.8309 20.7367L14.8305 20.7367L14.8288 20.7367L14.8174 20.7369L14.7671 20.7374C14.7216 20.7378 14.6532 20.7382 14.5649 20.738C14.3883 20.7377 14.1335 20.7353 13.8268 20.7269C13.2094 20.7099 12.4007 20.6688 11.604 20.575C10.7833 20.4783 10.0776 20.3365 9.61479 20.1567C9.57377 20.1407 9.53772 20.1256 9.5062 20.1116C9.59054 17.509 10.5227 16.1585 11.4812 15.4167C12.5585 14.5829 13.9078 14.336 14.8569 14.336C15.8019 14.336 17.0859 14.5809 18.1039 15.3994C19.0157 16.1327 19.9163 17.488 19.9945 20.124C19.9677 20.1361 19.9375 20.149 19.9035 20.1627C19.4648 20.3387 18.7898 20.4793 17.9974 20.5756C17.2293 20.669 16.4488 20.7099 15.8523 20.7269C15.5562 20.7353 15.3101 20.7377 15.1397 20.738C15.0545 20.7382 14.9885 20.7378 14.9448 20.7374L14.8965 20.7369L14.8857 20.7367L14.8842 20.7367L14.8838 20.7367L14.8837 20.7367L14.8837 20.7367L14.8574 20.7362L14.831 20.7367L14.8309 20.7367H14.8309ZM17.5355 7.82139C17.5355 9.30073 16.3363 10.5 14.8569 10.5C13.3776 10.5 12.1784 9.30073 12.1784 7.82139C12.1784 6.34206 13.3776 5.14282 14.8569 5.14282C16.3363 5.14282 17.5355 6.34206 17.5355 7.82139Z" stroke="black" stroke-width="3"/>
</svg>
