<svg width="64" height="64" viewBox="0 0 36 36" fill="none" xmlns="http://www.w3.org/2000/svg">
<path d="M9 27L14.76 14.76L27 9L21.24 21.24L9 27ZM18 16.38C17.5703 16.38 17.1583 16.5507 16.8545 16.8545C16.5507 17.1583 16.38 17.5703 16.38 18C16.38 18.4296 16.5507 18.8417 16.8545 19.1455C17.1583 19.4493 17.5703 19.62 18 19.62C18.4296 19.62 18.8417 19.4493 19.1455 19.1455C19.4493 18.8417 19.62 18.4296 19.62 18C19.62 17.5703 19.4493 17.1583 19.1455 16.8545C18.8417 16.5507 18.4296 16.38 18 16.38ZM18 0C20.3638 0 22.7044 0.465584 24.8883 1.37017C27.0722 2.27475 29.0565 3.60062 30.7279 5.27208C32.3994 6.94353 33.7252 8.92784 34.6298 11.1117C35.5344 13.2956 36 15.6362 36 18C36 22.7739 34.1036 27.3523 30.7279 30.7279C27.3523 34.1036 22.7739 36 18 36C15.6362 36 13.2956 35.5344 11.1117 34.6298C8.92784 33.7252 6.94353 32.3994 5.27208 30.7279C1.89642 27.3523 0 22.7739 0 18C0 13.2261 1.89642 8.64773 5.27208 5.27208C8.64773 1.89642 13.2261 0 18 0ZM18 3.6C14.1809 3.6 10.5182 5.11714 7.81766 7.81766C5.11714 10.5182 3.6 14.1809 3.6 18C3.6 21.8191 5.11714 25.4818 7.81766 28.1823C10.5182 30.8829 14.1809 32.4 18 32.4C21.8191 32.4 25.4818 30.8829 28.1823 28.1823C30.8829 25.4818 32.4 21.8191 32.4 18C32.4 14.1809 30.8829 10.5182 28.1823 7.81766C25.4818 5.11714 21.8191 3.6 18 3.6Z" fill="black"/>
</svg>
