<svg width="64" height="64" viewBox="0 0 40 40" fill="none" xmlns="http://www.w3.org/2000/svg">
<path d="M6 20H2L20 2L38 20H34M6 20V34C6 35.0609 6.42143 36.0783 7.17157 36.8284C7.92172 37.5786 8.93913 38 10 38H30C31.0609 38 32.0783 37.5786 32.8284 36.8284C33.5786 36.0783 34 35.0609 34 34V20" stroke="black" stroke-width="4" stroke-linecap="round" stroke-linejoin="round"/>
<path d="M14 38V26C14 24.9391 14.4214 23.9217 15.1716 23.1716C15.9217 22.4214 16.9391 22 18 22H22C23.0609 22 24.0783 22.4214 24.8284 23.1716C25.5786 23.9217 26 24.9391 26 26V38" stroke="black" stroke-width="4" stroke-linecap="round" stroke-linejoin="round"/>
</svg>
