<svg width="64" height="64" viewBox="0 0 40 40" fill="none" xmlns="http://www.w3.org/2000/svg">
<path d="M8.83658 18.7316L2 37.982L21.2504 31.1634M37.982 12.7946H38M25.3883 2H25.4063M36.5067 4.5C34 3.47526 31.8261 4.5001 31.1829 5.52394C30.5397 6.54778 30.2721 7.76322 30.4258 8.96252C30.6057 10.5097 29.4003 11.8951 27.8171 11.8951H27.1334C25.5862 11.8951 23.8771 12.9888 23.5892 14.5V16.3928M37.982 21.7901L36.5067 21.1964C34.9595 20.5847 33.2324 21.5562 32.9445 23.1934C32.7466 24.4528 31.6492 25.3883 30.3718 25.3883H28.9865M18.1919 2L18.7856 3.47526C19.3973 5.02249 18.4258 6.74963 16.7886 7.03748C15.5292 7.21739 14.5937 8.33283 14.5937 9.6102V10.9955" stroke="black" stroke-width="4" stroke-linecap="round" stroke-linejoin="round"/>
<path d="M18.1917 21.79C21.664 25.2623 23.2832 29.2923 21.7899 30.7855C20.2967 32.2788 16.2667 30.6596 12.7944 27.1873C9.32217 23.7151 7.70298 19.6851 9.19624 18.1918C10.6895 16.6986 14.7195 18.3178 18.1917 21.79Z" stroke="black" stroke-width="4" stroke-linecap="round" stroke-linejoin="round"/>
</svg>
